<?xml version="1.0" standalone="no"?>
<!DOCTYPE svg PUBLIC "-//W3C//DTD SVG 20010904//EN"
 "http://www.w3.org/TR/2001/REC-SVG-20010904/DTD/svg10.dtd">
<svg version="1.0" xmlns="http://www.w3.org/2000/svg"
 width="1200.000000pt" height="1200.000000pt" viewBox="0 0 1200.000000 1200.000000"
 preserveAspectRatio="xMidYMid meet">

<g transform="translate(0.000000,1200.000000) scale(0.100000,-0.100000)"
fill="#000000" stroke="none">
<path d="M4185 9859 c-223 -23 -361 -61 -540 -149 -281 -139 -494 -350 -635
-630 -140 -278 -200 -557 -200 -927 0 -501 130 -924 450 -1458 142 -236 165
-279 211 -395 99 -250 128 -449 149 -1000 42 -1114 169 -1754 458 -2310 78
-150 97 -180 108 -176 7 3 10 -3 7 -12 -2 -10 4 -26 14 -37 10 -11 23 -31 29
-45 25 -55 167 -231 266 -328 158 -157 289 -242 372 -242 147 0 193 196 251
1070 19 295 65 727 106 1005 86 586 206 1012 378 1355 81 160 111 209 206 335
210 278 463 452 773 531 94 25 126 28 267 28 96 1 191 -5 238 -13 42 -8 80
-12 83 -9 8 9 -144 83 -227 111 -140 48 -222 61 -414 63 -450 7 -770 -121
-1080 -431 -390 -388 -589 -912 -685 -1795 -41 -384 -53 -958 -29 -1405 13
-241 10 -265 -42 -265 -24 0 -41 10 -76 47 -96 104 -239 348 -300 513 -13 36
-28 74 -33 85 -5 11 -29 85 -54 165 -70 223 -123 486 -158 780 -8 73 -12 302
-13 760 0 721 -2 758 -67 1055 -57 267 -131 452 -310 780 -217 397 -311 766
-295 1160 11 268 58 460 169 679 102 203 296 390 504 488 47 22 138 54 202 71
115 30 122 30 357 31 248 0 273 -2 665 -60 160 -24 218 -28 430 -28 264 -1
319 6 487 61 131 43 172 73 97 73 -63 0 -272 40 -454 86 -166 42 -348 102
-615 201 -268 99 -500 157 -724 178 -160 16 -206 16 -326 4z"/>
<path d="M7705 9710 c-98 -11 -265 -52 -258 -63 3 -6 1 -7 -4 -4 -16 10 -146
-38 -266 -98 -184 -93 -320 -187 -583 -401 -544 -444 -722 -560 -1003 -654
-172 -58 -286 -74 -535 -74 l-208 -1 58 -27 c226 -104 530 -154 791 -130 244
23 394 66 634 183 77 38 163 84 192 102 517 336 555 359 702 434 203 103 356
143 545 143 229 0 393 -70 560 -239 81 -81 104 -112 147 -196 56 -109 92 -214
120 -345 26 -122 26 -555 0 -720 -10 -63 -20 -128 -23 -145 -23 -149 -131
-535 -220 -790 -256 -726 -304 -870 -388 -1170 -57 -205 -110 -400 -135 -495
-41 -159 -53 -200 -107 -365 -147 -449 -307 -774 -425 -860 -44 -33 -101 -34
-133 -2 -48 48 -89 208 -121 472 -69 562 -120 779 -243 1021 -127 249 -329
371 -584 350 -81 -6 -208 -43 -268 -76 l-35 -19 85 3 c155 8 249 -24 348 -117
96 -91 170 -241 217 -440 35 -148 55 -295 121 -882 66 -588 154 -824 344 -920
70 -35 182 -45 260 -22 201 59 436 307 631 669 172 319 263 576 483 1373 84
303 180 583 330 959 141 353 228 594 280 776 128 445 179 774 180 1150 0 594
-136 1006 -427 1287 -108 105 -184 158 -310 218 -216 104 -490 146 -752 115z"/>
</g>
</svg>
